<?xml version="1.0" standalone="no"?>
<!DOCTYPE svg PUBLIC "-//W3C//DTD SVG 20010904//EN"
 "http://www.w3.org/TR/2001/REC-SVG-20010904/DTD/svg10.dtd">
<svg version="1.0" xmlns="http://www.w3.org/2000/svg"
 width="512.000000pt" height="512.000000pt" viewBox="0 0 512.000000 512.000000"
 preserveAspectRatio="xMidYMid meet">

<g transform="translate(0.000000,512.000000) scale(0.100000,-0.100000)"
fill="#000000" stroke="none">
<path d="M1570 4585 l0 -335 150 0 150 0 0 185 0 185 690 0 690 0 0 -185 0
-185 150 0 150 0 0 335 0 335 -990 0 -990 0 0 -335z"/>
<path d="M272 3934 c-29 -7 -67 -21 -84 -30 -57 -30 -124 -102 -154 -167 l-29
-62 0 -1605 0 -1605 29 -59 c37 -76 102 -140 174 -174 48 -22 75 -27 163 -30
l106 -4 -33 68 c-74 151 -69 15 -69 1804 0 1792 -5 1661 70 1810 l35 70 -77
-1 c-43 0 -102 -7 -131 -15z"/>
<path d="M961 3939 c-148 -29 -257 -147 -281 -305 -7 -47 -10 -553 -8 -1609
l3 -1540 23 -57 c31 -76 100 -152 176 -191 l61 -32 1625 0 1625 0 58 30 c74
37 148 117 179 193 l23 57 0 1580 c0 1216 -3 1589 -12 1620 -33 106 -122 203
-223 242 -42 17 -142 18 -1625 19 -869 1 -1600 -2 -1624 -7z m2259 -789 l0
-420 420 0 420 0 0 -655 0 -655 -420 0 -420 0 -2 -423 -3 -422 -655 0 -655 0
-3 423 -2 422 -420 0 -420 0 0 655 0 655 420 0 420 0 0 420 0 420 660 0 660 0
0 -420z"/>
<path d="M2200 2850 l0 -420 -420 0 -420 0 0 -355 0 -355 420 0 420 0 2 -422
3 -423 355 0 355 0 3 423 2 422 420 0 420 0 0 355 0 355 -420 0 -420 0 0 420
0 420 -360 0 -360 0 0 -420z"/>
<path d="M4675 3880 c75 -149 70 -18 70 -1810 0 -1789 5 -1653 -69 -1804 l-33
-68 106 4 c88 3 115 8 163 30 72 34 137 98 174 174 l29 59 0 1605 0 1605 -29
62 c-64 140 -193 213 -377 213 l-69 0 35 -70z"/>
</g>
</svg>
