<?xml version="1.0" encoding="iso-8859-1"?>
<!-- Generator: Adobe Illustrator 19.0.0, SVG Export Plug-In . SVG Version: 6.00 Build 0)  -->
<svg version="1.1" id="Capa_1" xmlns="http://www.w3.org/2000/svg" xmlns:xlink="http://www.w3.org/1999/xlink" x="0px" y="0px"
	 viewBox="0 0 490 490" style="enable-background:new 0 0 490 490;" xml:space="preserve">
<g>
	<g>
		<g>
			<path d="M168.4,63h152.8c12.1,0,21.8-9.7,21.8-21.8V21.8C343,9.7,333.3,0,321.2,0H168.4c-12.1,0-21.8,9.7-21.8,21.8v19.8
				C147,53.3,156.7,63,168.4,63z"/>
			<path d="M210.4,262.5c-9.7,4.7-14,16.7-9.3,26.4l12.4,25.3l35.8-17.1l-12.4-25.3C231.8,262.1,220.1,257.8,210.4,262.5z"/>
			<path d="M260.2,366.3c9.7-4.7,14-16.7,9.3-26.4l-12.4-25.3l-35.8,17.1l12.4,25.3C238.4,367.1,250.4,371.4,260.2,366.3z"/>
			<path d="M135.7,311.9c-8.6,7-9.7,19.4-2.7,28l17.9,21.8l30.7-25.3l-17.9-21.8C156.7,306.1,144.3,304.9,135.7,311.9z"/>
			<path d="M164.1,376.4l17.9,21.8c7,8.6,19.4,9.7,28,2.7s9.7-19.4,2.7-28l-18.3-21.8L164.1,376.4z"/>
			<polygon points="317.3,136.9 317.3,82.8 172.7,82.8 172.7,136.9 104.6,216.2 104.6,249.3 293.2,249.3 293.2,429.7 104.6,429.7 
				104.6,490 385.4,490 385.4,216.2 			"/>
		</g>
	</g>
</g>
<g>
</g>
<g>
</g>
<g>
</g>
<g>
</g>
<g>
</g>
<g>
</g>
<g>
</g>
<g>
</g>
<g>
</g>
<g>
</g>
<g>
</g>
<g>
</g>
<g>
</g>
<g>
</g>
<g>
</g>
</svg>
