<?xml version="1.0" encoding="iso-8859-1"?>
<!-- Generator: Adobe Illustrator 18.0.0, SVG Export Plug-In . SVG Version: 6.00 Build 0)  -->
<!DOCTYPE svg PUBLIC "-//W3C//DTD SVG 1.1//EN" "http://www.w3.org/Graphics/SVG/1.1/DTD/svg11.dtd">
<svg version="1.1" id="Capa_1" xmlns="http://www.w3.org/2000/svg" xmlns:xlink="http://www.w3.org/1999/xlink" x="0px" y="0px"
	 viewBox="0 0 222.666 222.666" style="enable-background:new 0 0 222.666 222.666;" xml:space="preserve">
<path d="M111.334,47.695c-35.089,0-63.636,28.548-63.636,63.637c0,35.089,28.547,63.637,63.636,63.637
	c35.089,0,63.636-28.548,63.636-63.637C174.97,76.243,146.423,47.695,111.334,47.695z M111.334,147.695
	c-20.051,0-36.364-16.313-36.364-36.363s16.313-36.363,36.364-36.363s36.364,16.313,36.364,36.363S131.385,147.695,111.334,147.695z
	 M121.334,34h-20V0h20V34z M121.334,222.666h-20v-34h20V222.666z M222.666,121.332h-34v-20h34V121.332z M0,101.332h34v20H0V101.332z
	 M197.129,39.681l-24.043,24.041l-14.142-14.143l24.043-24.041L197.129,39.681z M63.722,173.087l-24.041,24.041l-14.143-14.143
	l24.041-24.041L63.722,173.087z M182.988,197.128l-24.043-24.041l14.142-14.143l24.043,24.041L182.988,197.128z M63.722,49.58
	L49.579,63.721L25.538,39.678l14.143-14.141L63.722,49.58z"/>
<g>
</g>
<g>
</g>
<g>
</g>
<g>
</g>
<g>
</g>
<g>
</g>
<g>
</g>
<g>
</g>
<g>
</g>
<g>
</g>
<g>
</g>
<g>
</g>
<g>
</g>
<g>
</g>
<g>
</g>
</svg>
